<svg xmlns="http://www.w3.org/2000/svg" width="600" height="400" viewBox="0 0 600 400"><rect width="100%" height="100%" fill="#DDDDDD"/><path fill="#999999" d="M143.295 200q0 17.1 4.15 33.61 4.15 16.52 11.87 31.05.83 1.66.96 2.94.12 1.29-.21 2.24-.33.96-1.04 1.66-.7.71-1.53 1.21l-9.13 5.56q-6.14-9.46-10.46-19.01-4.32-9.54-7.06-19.26-2.73-9.71-4.02-19.67-1.29-9.96-1.29-20.33 0-10.38 1.29-20.38 1.29-10 4.02-19.71 2.74-9.71 7.06-19.21 4.32-9.51 10.46-18.97l9.13 5.48q.83.5 1.53 1.2.71.71 1.04 1.66.33.96.21 2.24-.13 1.29-.96 3.03-7.72 14.44-11.87 31-4.15 16.56-4.15 33.66Zm109.07 24.57-10.88 10.7-28.13-28.13-28.39 28.3-10.87-10.71 28.38-28.47-27.05-27.05 10.79-10.79 27.05 27.05 26.9-26.89 10.95 10.79-26.97 26.98 28.22 28.22Zm14.94 38.59h65.4v13.28h-65.4v-13.28Zm158.78-38.59-10.88 10.7-28.13-28.13-28.39 28.3-10.87-10.71 28.38-28.47-27.06-27.05 10.79-10.79 27.06 27.05 26.89-26.89 10.96 10.79-26.97 26.98 28.22 28.22Zm30.62-24.57q0-17.1-4.11-33.66-4.1-16.56-11.82-31-.92-1.74-1.04-3.03-.13-1.28.21-2.24.33-.95 1.03-1.66.71-.7 1.62-1.2l9.13-5.48q6.14 9.46 10.46 18.97 4.32 9.5 7.06 19.21 2.73 9.71 3.98 19.71 1.24 10 1.24 20.38 0 10.37-1.24 20.33-1.25 9.96-3.98 19.67-2.74 9.72-7.06 19.26-4.32 9.55-10.46 19.01l-9.13-5.56q-.91-.5-1.62-1.21-.7-.7-1.03-1.66-.34-.95-.21-2.24.12-1.28 1.04-2.94 7.72-14.53 11.82-31.05 4.11-16.51 4.11-33.61Z"/></svg>